<svg width="40" height="40" viewBox="0 0 40 40" fill="none" xmlns="http://www.w3.org/2000/svg">
<path d="M20 0C8.97207 0 0 8.97207 0 20C0 31.0279 8.97207 40 20 40C31.0279 40 40 31.0279 40 20C40 8.97207 31.0279 0 20 0ZM20 3C29.4066 3 37 10.5934 37 20C37 28.3808 30.9672 35.3064 23 36.7207V25H26.625C27.129 25 27.5552 24.623 27.6172 24.123L27.9922 21.123C28.0282 20.839 27.938 20.5539 27.748 20.3379C27.559 20.1229 27.287 20 27 20H23V16.5C23 15.397 23.897 14.5 25 14.5H27C27.552 14.5 28 14.053 28 13.5V10.125C28 9.607 27.6048 9.17491 27.0898 9.12891C27.0308 9.12391 25.62 9 23.834 9C19.427 9 17 11.6162 17 16.3672V20H13C12.448 20 12 20.447 12 21V24C12 24.553 12.448 25 13 25H17V36.7207C9.03282 35.3064 3 28.3808 3 20C3 10.5934 10.5934 3 20 3Z" fill="#F6F6FE"/>
</svg>
