<svg width="166" height="49" viewBox="0 0 166 49" fill="none" xmlns="http://www.w3.org/2000/svg">
<path fill-rule="evenodd" clip-rule="evenodd" d="M0 14.13V14.253L27.95 27.383L56 14.209V14.176L27.95 1L0 14.13ZM10.077 14.192L27.95 5.795L45.827 14.192L27.95 22.588L10.076 14.192H10.077ZM27.95 32.483L0 19.55V24.334L27.95 37.298L56 24.289V19.505L27.95 32.483ZM27.95 42.186L0 29.25V34.033L27.95 47L56 33.99V29.206L27.95 42.186V42.186Z" fill="white"/>
<mask id="mask0_725_1034" style="mask-type:alpha" maskUnits="userSpaceOnUse" x="72" y="0" width="94" height="49">
<path d="M72.0137 0.0292969H165.974V48.3193H72.0147L72.0137 0.0292969Z" fill="white"/>
</mask>
<g mask="url(#mask0_725_1034)">
<path fill-rule="evenodd" clip-rule="evenodd" d="M159.56 24.1503C159.576 22.0851 158.803 20.0916 157.399 18.5773C156.738 17.8692 155.942 17.3003 155.059 16.9043C154.163 16.5024 153.191 16.2975 152.209 16.3033C151.199 16.3033 150.248 16.5033 149.357 16.9043C148.473 17.3003 147.677 17.8691 147.017 18.5773C145.612 20.0921 144.84 22.0859 144.857 24.1513C144.84 26.2164 145.613 28.2098 147.017 29.7243C147.677 30.4322 148.473 31.0007 149.357 31.3963C150.253 31.7987 151.225 32.004 152.208 31.9983C153.218 31.9983 154.168 31.7983 155.06 31.3963C155.943 31.0005 156.738 30.4321 157.399 29.7243C158.803 28.2097 159.576 26.2158 159.559 24.1503H159.56ZM165.975 24.1503C165.975 26.0823 165.618 27.8733 164.905 29.5233C164.22 31.1319 163.22 32.5872 161.965 33.8033C160.718 35.0083 159.255 35.9593 157.577 36.6573C155.899 37.3563 154.109 37.7053 152.208 37.7053C150.308 37.7053 148.525 37.3563 146.862 36.6573C145.237 35.9843 143.755 35.0082 142.496 33.7813C141.243 32.5544 140.244 31.0925 139.556 29.4793C138.843 27.8293 138.486 26.0533 138.486 24.1503C138.486 22.2773 138.85 20.5163 139.578 18.8663C140.282 17.2501 141.287 15.7824 142.54 14.5413C143.795 13.3027 145.278 12.3187 146.907 11.6433C148.585 10.9417 150.388 10.5853 152.208 10.5953C154.109 10.5953 155.898 10.9453 157.577 11.6433C159.255 12.3413 160.717 13.2933 161.965 14.4973C163.213 15.7013 164.193 17.1353 164.905 18.7993C165.618 20.4643 165.975 22.2483 165.975 24.1503V24.1503ZM136.258 36.9033C135.708 37.1565 135.133 37.3509 134.543 37.4833C133.905 37.6313 133.243 37.7053 132.561 37.7053C131.634 37.7087 130.712 37.5811 129.821 37.3263C128.975 37.0904 128.192 36.6719 127.526 36.1003C126.873 35.5353 126.353 34.8003 125.966 33.8933C125.581 32.9863 125.388 31.8933 125.388 30.6163V0.0273438H131.937V29.5013C131.937 30.5713 132.152 31.3073 132.583 31.7083C133.013 32.1093 133.526 32.3103 134.12 32.3103C134.862 32.3103 135.575 32.0873 136.258 31.6413V36.9033V36.9033ZM122.492 11.2183L110.908 41.8523C110.047 44.1413 108.918 45.7913 107.522 46.8023C106.126 47.8123 104.462 48.3173 102.532 48.3173C102.235 48.3173 101.909 48.2953 101.552 48.2513C101.206 48.2087 100.863 48.1416 100.527 48.0503L98.3886 42.0753C98.8892 42.3114 99.4117 42.498 99.9486 42.6323C100.483 42.7663 100.988 42.8333 101.463 42.8333C102.473 42.8333 103.393 42.6033 104.225 42.1423C105.057 41.6823 105.695 40.8273 106.141 39.5783L107.032 36.9923L97.0966 11.2193H104.092L110.017 27.8073L115.587 11.2193H122.492V11.2183ZM95.5376 7.34034H78.7856V15.6343H95.3146V21.2523H78.7846V37.0363H72.0146V1.41034H95.5386V7.34034H95.5376Z" fill="white"/>
</g>
</svg>
