<svg width="38" height="38" viewBox="0 0 38 38" fill="none" xmlns="http://www.w3.org/2000/svg">
<path d="M11.5 0C5.16639 0 0 5.16639 0 11.5V26.5C0 32.8328 5.16621 38 11.5 38H26.5C32.8329 38 38 32.8329 38 26.5V11.5C38 5.16621 32.8328 0 26.5 0H11.5ZM11.5 3H26.5C31.2112 3 35 6.78779 35 11.5V26.5C35 31.2111 31.2111 35 26.5 35H11.5C6.78779 35 3 31.2112 3 26.5V11.5C3 6.78761 6.78761 3 11.5 3ZM29 7C27.895 7 27 7.895 27 9C27 10.105 27.895 11 29 11C30.105 11 31 10.105 31 9C31 7.895 30.105 7 29 7ZM19 9C13.4952 9 9 13.4952 9 19C9 24.5048 13.4952 29 19 29C24.5048 29 29 24.5048 29 19C29 13.4952 24.5048 9 19 9ZM19 12C22.8832 12 26 15.1168 26 19C26 22.8832 22.8832 26 19 26C15.1168 26 12 22.8832 12 19C12 15.1168 15.1168 12 19 12Z" fill="#3065F8"/>
</svg>
